<?xml version="1.0" standalone="no"?><!DOCTYPE svg PUBLIC "-//W3C//DTD SVG 1.1//EN" "http://www.w3.org/Graphics/SVG/1.1/DTD/svg11.dtd"><svg t="1729566560410" class="icon" viewBox="0 0 1024 1024" version="1.1" xmlns="http://www.w3.org/2000/svg" p-id="2447" xmlns:xlink="http://www.w3.org/1999/xlink" width="200" height="200"><path d="M306.03975684 310.21786915" fill="#e6e6e6" p-id="2448"></path><path d="M513.70846 7.03173169c-277.18215154 0-501.84787343 224.66572189-501.84787342 501.84787342s224.66572189 501.84787343 501.84787342 501.84787344 501.84787343-224.66572189 501.84787344-501.84787344S790.89061155 7.03173169 513.70846 7.03173169zM748.10751741 663.9592418c-20.48358668 58.54528673-77.28558943 114.11246332-144.54729601 139.89853874-35.66468459 14.01890861-107.72042211 18.74030271-146.87167464 9.37015135C280.47159192 772.18812172 190.40192004 549.2656838 284.61189135 388.30246372c31.01592734-53.24279797 115.27465265-125.22589866 146.29057999-125.22589866 7.04577272 0 17.57811338 5.30248875 22.8079653 11.11343534 18.74030271 20.48358668 9.37015135 35.73732144-40.96717334 71.40200602-71.40200603 50.91841934-102.41793335 108.30151675-102.41793336 189.07367411 0 65.51842262 24.55124927 121.73933071 73.72638465 166.77416667 40.38607869 36.89951075 72.56419533 49.75623003 128.78510343 50.33732467 78.44777874 0 134.59605-33.34030597 167.35526131-99.51246006 17.57811338-35.66468459 18.15920805-40.38607869 15.8348294-90.14230871-2.32437863-45.03483595-4.64875726-56.14827126-19.902492-80.19106272-16.41592407-26.36717008-66.68061194-62.61294932-75.46966861-54.40498728-1.74328398 2.32437863 1.74328398 24.55124927 8.78905667 49.75623002 6.46467806 25.20498077 11.69452998 50.91841934 11.69452999 57.38309741 0 47.43185139-36.89951075 96.53434995-81.35325203 108.88261143-75.46966862 20.48358668-136.92042863-37.48060539-136.92042862-129.36619811 0-63.77513864 31.59702199-111.7880847 90.14230871-138.08261793l21.06468133-9.37015136-2.32437863-50.33732469c-2.90547329-45.61593059-1.74328398-52.08060867 9.95124601-67.33434339 28.69154871-35.66468459 75.46966862-48.59404072 115.27465265-31.59702202 23.97015462 9.951246 48.59404072 34.50249527 48.59404071 48.01294607 0 13.43781396-15.83482942 32.7592113-26.94826473 32.7592113-4.06766261 0-18.15920805-5.22985192-31.01592734-12.27562463-28.69154871-14.60000326-41.548268-12.85671929-52.66170332 7.04577271-7.04577272 12.85671929-7.62686737 19.90249201-1.74328397 39.22388937 6.46467806 21.64577598 9.37015135 23.97015462 35.08358994 30.43483269 66.09951726 15.83482942 110.62589539 55.56717661 136.92042863 122.32042537C762.126426 528.20100248 763.94234681 620.08659517 748.10751741 663.9592418z" fill="#e6e6e6" p-id="2449"></path><path d="M493.44278384 449.68058691c-18.74030271 11.69452998-37.48060539 48.01294606-37.48060541 74.3074793 0 22.22687065 15.25373475 53.24279797 29.27264336 60.86966536 25.71343859 14.01890861 64.3562333-9.951246 64.35623331-39.80498405 0-8.7890567-4.64875726-36.31841608-9.95124601-61.45076C527.94527911 433.84575749 523.87761652 430.9402842 493.44278384 449.68058691z" fill="#e6e6e6" p-id="2450"></path></svg>